<?xml version="1.0" encoding="UTF-8" standalone="no"?>
<!-- Created with Inkscape (http://www.inkscape.org/) -->

<svg
   xmlns:dc="http://purl.org/dc/elements/1.1/"
   xmlns:cc="http://creativecommons.org/ns#"
   xmlns:rdf="http://www.w3.org/1999/02/22-rdf-syntax-ns#"
   xmlns:svg="http://www.w3.org/2000/svg"
   xmlns="http://www.w3.org/2000/svg"
   xmlns:sodipodi="http://sodipodi.sourceforge.net/DTD/sodipodi-0.dtd"
   xmlns:inkscape="http://www.inkscape.org/namespaces/inkscape"
   width="268.62436mm"
   height="104.23089mm"
   viewBox="0 0 951.8186 369.32204"
   id="svg13797"
   version="1.1"
   inkscape:version="0.91 r13725"
   sodipodi:docname="overview_somatic_varcall.svg"
   inkscape:export-filename="/home/manuel/Development/open_pipeline/snappy_pipeline/docs/figures/overview_somatic_varcall.png"
   inkscape:export-xdpi="300"
   inkscape:export-ydpi="300">
  <defs
     id="defs13799">
    <marker
       inkscape:isstock="true"
       style="overflow:visible"
       id="marker15854"
       refX="0"
       refY="0"
       orient="auto"
       inkscape:stockid="Arrow1Mend">
      <path
         transform="matrix(-0.4,0,0,-0.4,-4,0)"
         style="fill:#000000;fill-opacity:1;fill-rule:evenodd;stroke:#000000;stroke-width:1pt;stroke-opacity:1"
         d="M 0,0 5,-5 -12.5,0 5,5 0,0 Z"
         id="path15856"
         inkscape:connector-curvature="0" />
    </marker>
    <marker
       inkscape:isstock="true"
       style="overflow:visible"
       id="marker15802"
       refX="0"
       refY="0"
       orient="auto"
       inkscape:stockid="Arrow1Mend">
      <path
         transform="matrix(-0.4,0,0,-0.4,-4,0)"
         style="fill:#000000;fill-opacity:1;fill-rule:evenodd;stroke:#000000;stroke-width:1pt;stroke-opacity:1"
         d="M 0,0 5,-5 -12.5,0 5,5 0,0 Z"
         id="path15804"
         inkscape:connector-curvature="0" />
    </marker>
    <marker
       inkscape:stockid="Arrow1Mend"
       orient="auto"
       refY="0"
       refX="0"
       id="marker14801"
       style="overflow:visible"
       inkscape:isstock="true"
       inkscape:collect="always">
      <path
         inkscape:connector-curvature="0"
         id="path14803"
         d="M 0,0 5,-5 -12.5,0 5,5 0,0 Z"
         style="fill:#000000;fill-opacity:1;fill-rule:evenodd;stroke:#000000;stroke-width:1pt;stroke-opacity:1"
         transform="matrix(-0.4,0,0,-0.4,-4,0)" />
    </marker>
    <marker
       inkscape:stockid="Arrow1Mstart"
       orient="auto"
       refY="0"
       refX="0"
       id="Arrow1Mstart"
       style="overflow:visible"
       inkscape:isstock="true">
      <path
         id="path8690"
         d="M 0,0 5,-5 -12.5,0 5,5 0,0 Z"
         style="fill:#000000;fill-opacity:1;fill-rule:evenodd;stroke:#000000;stroke-width:1pt;stroke-opacity:1"
         transform="matrix(0.4,0,0,0.4,4,0)"
         inkscape:connector-curvature="0" />
    </marker>
    <marker
       inkscape:stockid="Arrow1Mend"
       orient="auto"
       refY="0"
       refX="0"
       id="Arrow1Mend"
       style="overflow:visible"
       inkscape:isstock="true">
      <path
         id="path8693"
         d="M 0,0 5,-5 -12.5,0 5,5 0,0 Z"
         style="fill:#000000;fill-opacity:1;fill-rule:evenodd;stroke:#000000;stroke-width:1pt;stroke-opacity:1"
         transform="matrix(-0.4,0,0,-0.4,-4,0)"
         inkscape:connector-curvature="0" />
    </marker>
    <marker
       inkscape:stockid="Arrow1Lend"
       orient="auto"
       refY="0"
       refX="0"
       id="Arrow1Lend"
       style="overflow:visible"
       inkscape:isstock="true">
      <path
         id="path8687"
         d="M 0,0 5,-5 -12.5,0 5,5 0,0 Z"
         style="fill:#000000;fill-opacity:1;fill-rule:evenodd;stroke:#000000;stroke-width:1pt;stroke-opacity:1"
         transform="matrix(-0.8,0,0,-0.8,-10,0)"
         inkscape:connector-curvature="0" />
    </marker>
    <marker
       inkscape:isstock="true"
       style="overflow:visible"
       id="marker10738"
       refX="0"
       refY="0"
       orient="auto"
       inkscape:stockid="Arrow1Mend"
       inkscape:collect="always">
      <path
         transform="matrix(-0.4,0,0,-0.4,-4,0)"
         style="fill:#000000;fill-opacity:1;fill-rule:evenodd;stroke:#000000;stroke-width:1pt;stroke-opacity:1"
         d="M 0,0 5,-5 -12.5,0 5,5 0,0 Z"
         id="path10740"
         inkscape:connector-curvature="0" />
    </marker>
  </defs>
  <sodipodi:namedview
     id="base"
     pagecolor="#ffffff"
     bordercolor="#666666"
     borderopacity="1.0"
     inkscape:pageopacity="0.0"
     inkscape:pageshadow="2"
     inkscape:zoom="0.7"
     inkscape:cx="747.42498"
     inkscape:cy="364.59981"
     inkscape:document-units="px"
     inkscape:current-layer="layer1"
     showgrid="true"
     inkscape:snap-bbox="true"
     inkscape:bbox-nodes="true"
     inkscape:window-width="1600"
     inkscape:window-height="851"
     inkscape:window-x="0"
     inkscape:window-y="25"
     inkscape:window-maximized="1"
     inkscape:object-nodes="true"
     fit-margin-left="2"
     fit-margin-top="2"
     fit-margin-bottom="2"
     fit-margin-right="2">
    <inkscape:grid
       type="xygrid"
       id="grid13805"
       originx="-52.913386"
       originy="-657.76455" />
  </sodipodi:namedview>
  <metadata
     id="metadata13802">
    <rdf:RDF>
      <cc:Work
         rdf:about="">
        <dc:format>image/svg+xml</dc:format>
        <dc:type
           rdf:resource="http://purl.org/dc/dcmitype/StillImage" />
        <dc:title></dc:title>
      </cc:Work>
    </rdf:RDF>
  </metadata>
  <g
     inkscape:label="Layer 1"
     inkscape:groupmode="layer"
     id="layer1"
     transform="translate(-52.913386,-25.275594)">
    <g
       id="g15930">
      <g
         id="g14568">
        <path
           inkscape:connector-curvature="0"
           style="fill:#ef2929;stroke:#a40000;stroke-width:2;stroke-miterlimit:4;stroke-dasharray:none"
           id="cog"
           d="m 374.9,163.38624 -1.2,11.7 -1.5,11.7 -6,2.7 -6,2.7 -9.6,-7.8 -9.3,-7.5 -8.1,8.1 -8.1,8.1 7.5,9.3 7.5,9.6 -2.7,5.7 -2.7,5.7 -10.5,1.5 c -6,0.9 -11.1,1.5 -12,1.8 -0.9,0.3 -1.2,3.6 -1.2,11.7 l 0,11.1 11.7,1.2 c 7.2,0.9 12,1.8 12,2.4 0,0.6 0.9,3.6 2.4,6.3 l 2.4,5.4 -7.5,9 -7.5,9.3 8.1,8.1 8.1,8.1 9,-6.9 9,-7.2 5.4,2.7 c 3,1.5 6,3 6.6,3 0.3,0.3 1.2,4.8 2.1,10.2 0.6,5.4 1.2,10.2 1.5,11.1 0.3,0.9 3.3,1.2 11.4,1.2 l 11.4,0 1.2,-10.8 c 0.9,-8.4 1.5,-11.1 3,-11.4 0.9,-0.3 3.9,-1.5 6.9,-3 l 5.1,-2.4 8.7,7.2 9,6.9 7.8,-8.1 c 6,-6 7.8,-8.4 7.2,-9.3 -0.6,-0.9 -3.9,-4.8 -6.9,-8.7 l -6,-7.5 2.7,-5.4 c 1.5,-3 2.4,-6 2.4,-6.6 0,-1.2 2.4,-1.8 15.6,-3.3 l 6.6,-0.9 0.3,-11.4 0.3,-11.4 -11.4,-1.2 c -6.9,-0.9 -11.4,-1.8 -11.4,-2.4 0,-0.6 -0.9,-3.6 -2.4,-6.6 l -2.7,-5.7 7.2,-8.7 7.2,-9 -8.1,-8.1 -8.1,-8.1 -9,7.2 -9,7.2 -6.3,-2.7 -6.3,-2.7 -1.5,-11.1 -1.5,-11.4 -11.4,-0.3 -11.4,-0.3 z m 11.1,51 c 13.2,0 24,10.8 24,24 0,13.2 -10.8,24 -24,24 -13.2,0 -24,-10.8 -24,-24 0,-13.2 10.8,-24 24,-24 z" />
        <text
           xml:space="preserve"
           style="font-style:normal;font-weight:normal;font-size:25px;line-height:125%;font-family:sans-serif;text-align:center;letter-spacing:0px;word-spacing:0px;text-anchor:middle;fill:#000000;fill-opacity:1;stroke:none;stroke-width:1px;stroke-linecap:butt;stroke-linejoin:miter;stroke-opacity:1"
           x="385.8533"
           y="366.49051"
           id="text12749"
           sodipodi:linespacing="125%"><tspan
             id="tspan14428"
             sodipodi:role="line"
             x="385.8533"
             y="366.49051"
             style="font-weight:bold;font-size:25px">NGS Mapping</tspan></text>
        <path
           d="m 624.9,163.38624 -1.2,11.7 -1.5,11.7 -6,2.7 -6,2.7 -9.6,-7.8 -9.3,-7.5 -8.1,8.1 -8.1,8.1 7.5,9.3 7.5,9.6 -2.7,5.7 -2.7,5.7 -10.5,1.5 c -6,0.9 -11.1,1.5 -12,1.8 -0.9,0.3 -1.2,3.6 -1.2,11.7 l 0,11.1 11.7,1.2 c 7.2,0.9 12,1.8 12,2.4 0,0.6 0.9,3.6 2.4,6.3 l 2.4,5.4 -7.5,9 -7.5,9.3 8.1,8.1 8.1,8.1 9,-6.9 9,-7.2 5.4,2.7 c 3,1.5 6,3 6.6,3 0.3,0.3 1.2,4.8 2.1,10.2 0.6,5.4 1.2,10.2 1.5,11.1 0.3,0.9 3.3,1.2 11.4,1.2 l 11.4,0 1.2,-10.8 c 0.9,-8.4 1.5,-11.1 3,-11.4 0.9,-0.3 3.9,-1.5 6.9,-3 l 5.1,-2.4 8.7,7.2 9,6.9 7.8,-8.1 c 6,-6 7.8,-8.4 7.2,-9.3 -0.6,-0.9 -3.9,-4.8 -6.9,-8.7 l -6,-7.5 2.7,-5.4 c 1.5,-3 2.4,-6 2.4,-6.6 0,-1.2 2.4,-1.8 15.6,-3.3 l 6.6,-0.9 0.3,-11.4 0.3,-11.4 -11.4,-1.2 c -6.9,-0.9 -11.4,-1.8 -11.4,-2.4 0,-0.6 -0.9,-3.6 -2.4,-6.6 l -2.7,-5.7 7.2,-8.7 7.2,-9 -8.1,-8.1 -8.1,-8.1 -9,7.2 -9,7.2 -6.3,-2.7 -6.3,-2.7 -1.5,-11.1 -1.5,-11.4 -11.4,-0.3 -11.4,-0.3 z m 11.1,51 c 13.2,0 24,10.8 24,24 0,13.2 -10.8,24 -24,24 -13.2,0 -24,-10.8 -24,-24 0,-13.2 10.8,-24 24,-24 z"
           id="path14430"
           style="fill:#cc0000;stroke:#a40000;stroke-width:2;stroke-miterlimit:4;stroke-dasharray:none"
           inkscape:connector-curvature="0" />
        <text
           sodipodi:linespacing="125%"
           id="text14432"
           y="350.86551"
           x="635.85333"
           style="font-style:normal;font-weight:normal;font-size:25px;line-height:125%;font-family:sans-serif;text-align:center;letter-spacing:0px;word-spacing:0px;text-anchor:middle;fill:#000000;fill-opacity:1;stroke:none;stroke-width:1px;stroke-linecap:butt;stroke-linejoin:miter;stroke-opacity:1"
           xml:space="preserve"><tspan
             id="tspan14448"
             style="font-weight:bold;font-size:25px"
             y="350.86551"
             x="635.85333"
             sodipodi:role="line">Somatic Variant</tspan><tspan
             id="tspan14475"
             style="font-weight:bold;font-size:25px"
             y="382.11551"
             x="635.85333"
             sodipodi:role="line">Calling</tspan></text>
        <path
           inkscape:connector-curvature="0"
           style="fill:#a40000;stroke:#a40000;stroke-width:2;stroke-miterlimit:4;stroke-dasharray:none"
           id="path14438"
           d="m 874.9,163.38624 -1.2,11.7 -1.5,11.7 -6,2.7 -6,2.7 -9.6,-7.8 -9.3,-7.5 -8.1,8.1 -8.1,8.1 7.5,9.3 7.5,9.6 -2.7,5.7 -2.7,5.7 -10.5,1.5 c -6,0.9 -11.1,1.5 -12,1.8 -0.9,0.3 -1.2,3.6 -1.2,11.7 l 0,11.1 11.7,1.2 c 7.2,0.9 12,1.8 12,2.4 0,0.6 0.9,3.6 2.4,6.3 l 2.4,5.4 -7.5,9 -7.5,9.3 8.1,8.1 8.1,8.1 9,-6.9 9,-7.2 5.4,2.7 c 3,1.5 6,3 6.6,3 0.3,0.3 1.2,4.8 2.1,10.2 0.6,5.4 1.2,10.2 1.5,11.1 0.3,0.9 3.3,1.2 11.4,1.2 l 11.4,0 1.2,-10.8 c 0.9,-8.4 1.5,-11.1 3,-11.4 0.9,-0.3 3.9,-1.5 6.9,-3 l 5.1,-2.4 8.7,7.2 9,6.9 7.8,-8.1 c 6,-6 7.8,-8.4 7.2,-9.3 -0.6,-0.9 -3.9,-4.8 -6.9,-8.7 l -6,-7.5 2.7,-5.4 c 1.5,-3 2.4,-6 2.4,-6.6 0,-1.2 2.4,-1.8 15.6,-3.3 l 6.6,-0.9 0.3,-11.4 0.3,-11.4 -11.4,-1.2 c -6.9,-0.9 -11.4,-1.8 -11.4,-2.4 0,-0.6 -0.9,-3.6 -2.4,-6.6 l -2.7,-5.7 7.2,-8.7 7.2,-9 -8.1,-8.1 -8.1,-8.1 -9,7.2 -9,7.2 -6.3,-2.7 -6.3,-2.7 -1.5,-11.1 -1.5,-11.4 -11.4,-0.3 -11.4,-0.3 z m 11.1,51 c 13.2,0 24,10.8 24,24 0,13.2 -10.8,24 -24,24 -13.2,0 -24,-10.8 -24,-24 0,-13.2 10.8,-24 24,-24 z" />
        <text
           xml:space="preserve"
           style="font-style:normal;font-weight:normal;font-size:25px;line-height:125%;font-family:sans-serif;text-align:center;letter-spacing:0px;word-spacing:0px;text-anchor:middle;fill:#000000;fill-opacity:1;stroke:none;stroke-width:1px;stroke-linecap:butt;stroke-linejoin:miter;stroke-opacity:1"
           x="885.85333"
           y="353.38626"
           id="text14440"
           sodipodi:linespacing="125%"><tspan
             id="tspan14444"
             sodipodi:role="line"
             x="885.85333"
             y="353.38626"
             style="font-weight:bold;font-size:25px">Somatic Variant</tspan><tspan
             id="tspan14477"
             sodipodi:role="line"
             x="885.85333"
             y="384.63626"
             style="font-weight:bold;font-size:25px">Annotation</tspan></text>
      </g>
      <g
         transform="translate(7.8980751,-159.09107)"
         id="g12720">
        <rect
           ry="4.999999"
           y="371.95328"
           x="52.601925"
           height="60"
           width="171.10889"
           id="rect11325"
           style="fill:#8ae234;stroke:#2e3436" />
        <text
           sodipodi:linespacing="125%"
           id="text11327"
           y="409.40933"
           x="137.74133"
           style="font-style:normal;font-weight:normal;font-size:20px;line-height:125%;font-family:sans-serif;text-align:center;letter-spacing:0px;word-spacing:0px;text-anchor:middle;fill:#000000;fill-opacity:1;stroke:none;stroke-width:1px;stroke-linecap:butt;stroke-linejoin:miter;stroke-opacity:1"
           xml:space="preserve"><tspan
             id="tspan11450"
             y="409.40933"
             x="137.74133"
             sodipodi:role="line">raw data files</tspan></text>
      </g>
      <g
         transform="translate(49.30815,0)"
         id="g14528">
        <g
           id="g14414"
           transform="translate(193.62767,3.6847456)">
          <rect
             style="fill:#f57900;stroke:#2e3436"
             id="rect9169"
             width="170"
             height="60"
             x="96.87233"
             y="30.177456"
             ry="4.999999" />
          <text
             xml:space="preserve"
             style="font-style:normal;font-weight:normal;font-size:20px;line-height:125%;font-family:sans-serif;text-align:center;letter-spacing:0px;word-spacing:0px;text-anchor:middle;fill:#000000;fill-opacity:1;stroke:none;stroke-width:1px;stroke-linecap:butt;stroke-linejoin:miter;stroke-opacity:1"
             x="182.17995"
             y="65.695038"
             id="text9171"
             sodipodi:linespacing="125%"><tspan
               id="tspan9179"
               sodipodi:role="line"
               x="182.17995"
               y="65.695038"
               style="font-style:normal;font-variant:normal;font-weight:normal;font-stretch:normal;font-family:sans-serif;-inkscape-font-specification:sans-serif">configuration</tspan></text>
        </g>
        <g
           id="g12715"
           transform="translate(67.898071,-339.0911)">
          <rect
             style="fill:#ad7fa8;stroke:#2e3436"
             id="rect11325-6"
             width="201.10889"
             height="59.999992"
             x="412.60193"
             y="371.95331"
             ry="4.999999" />
          <text
             xml:space="preserve"
             style="font-style:normal;font-weight:normal;font-size:20px;line-height:125%;font-family:sans-serif;text-align:center;letter-spacing:0px;word-spacing:0px;text-anchor:middle;fill:#000000;fill-opacity:1;stroke:none;stroke-width:1px;stroke-linecap:butt;stroke-linejoin:miter;stroke-opacity:1"
             x="513.10754"
             y="409.40936"
             id="text11327-8"
             sodipodi:linespacing="125%"><tspan
               sodipodi:role="line"
               x="513.10754"
               y="409.40936"
               id="tspan11450-6">static data files</tspan></text>
        </g>
        <g
           id="g14419"
           transform="translate(395.73656,2.6847486)">
          <g
             style="fill:#e9b96e"
             transform="translate(-313.62767,-82.68473)"
             id="g13446">
            <rect
               ry="4.999999"
               y="112.86219"
               x="618.39111"
               height="59.999992"
               width="201.10889"
               id="rect11325-6-6"
               style="fill:#e9b96e;stroke:#2e3436" />
          </g>
          <text
             xml:space="preserve"
             style="font-style:normal;font-weight:normal;font-size:20px;line-height:125%;font-family:sans-serif;text-align:center;letter-spacing:0px;word-spacing:0px;text-anchor:middle;fill:#000000;fill-opacity:1;stroke:none;stroke-width:1px;stroke-linecap:butt;stroke-linejoin:miter;stroke-opacity:1"
             x="405.26904"
             y="53.19503"
             id="text11327-8-9"
             sodipodi:linespacing="125%"><tspan
               sodipodi:role="line"
               x="405.26904"
               y="53.19503"
               id="tspan11450-6-7">bio medical</tspan><tspan
               id="tspan13415"
               sodipodi:role="line"
               x="405.26904"
               y="78.19503">sample sheets</tspan></text>
        </g>
      </g>
      <path
         inkscape:connector-curvature="0"
         id="path14581"
         d="m 240,242.3622 60,0"
         style="fill:none;fill-rule:evenodd;stroke:#000000;stroke-width:5;stroke-linecap:butt;stroke-linejoin:miter;stroke-miterlimit:4;stroke-dasharray:none;stroke-opacity:1;marker-end:url(#marker15854)" />
      <path
         sodipodi:nodetypes="cc"
         inkscape:connector-curvature="0"
         id="path14583"
         d="m 630,97.362205 0,54.999995"
         style="fill:none;fill-rule:evenodd;stroke:#000000;stroke-width:2;stroke-linecap:butt;stroke-linejoin:miter;stroke-miterlimit:4;stroke-dasharray:none;stroke-opacity:1;marker-end:url(#Arrow1Mend)" />
      <path
         sodipodi:nodetypes="cccc"
         inkscape:connector-curvature="0"
         id="path14585"
         d="m 380,152.3622 0,-20 500,0 0,20"
         style="fill:none;fill-rule:evenodd;stroke:#000000;stroke-width:2;stroke-linecap:butt;stroke-linejoin:miter;stroke-miterlimit:4;stroke-dasharray:none;stroke-opacity:1" />
      <path
         style="fill:none;fill-rule:evenodd;stroke:#000000;stroke-width:2;stroke-linecap:butt;stroke-linejoin:miter;stroke-miterlimit:4;stroke-dasharray:none;stroke-opacity:1;marker-start:url(#Arrow1Mstart);marker-end:url(#marker10738)"
         d="m 380,152.3622 0,-20 500,0 0,20"
         id="path14587"
         inkscape:connector-curvature="0"
         sodipodi:nodetypes="cccc" />
      <path
         sodipodi:nodetypes="cccc"
         inkscape:connector-curvature="0"
         id="path14589"
         d="m 840,97.362205 -2e-4,19.999995 -409.9998,0 1.9e-4,-19.99999"
         style="fill:none;fill-rule:evenodd;stroke:#000000;stroke-width:2;stroke-linecap:butt;stroke-linejoin:miter;stroke-miterlimit:4;stroke-dasharray:none;stroke-opacity:1" />
      <path
         sodipodi:nodetypes="cc"
         style="fill:none;fill-rule:evenodd;stroke:#000000;stroke-width:5;stroke-linecap:butt;stroke-linejoin:miter;stroke-miterlimit:4;stroke-dasharray:none;stroke-opacity:1;marker-end:url(#marker15802)"
         d="m 470,242.36221 80,-1e-5"
         id="path15150"
         inkscape:connector-curvature="0" />
      <path
         sodipodi:nodetypes="cc"
         inkscape:connector-curvature="0"
         id="path15152"
         d="m 725,242.36221 75,-1e-5"
         style="fill:none;fill-rule:evenodd;stroke:#000000;stroke-width:5;stroke-linecap:butt;stroke-linejoin:miter;stroke-miterlimit:4;stroke-dasharray:none;stroke-opacity:1;marker-end:url(#marker14801)" />
    </g>
  </g>
</svg>
