<?xml version="1.0" encoding="UTF-8" standalone="no"?>
<!DOCTYPE svg PUBLIC "-//W3C//DTD SVG 1.1//EN"
 "http://www.w3.org/Graphics/SVG/1.1/DTD/svg11.dtd">
<!-- Generated by graphviz version 2.47.2 (20210527.1257)
 -->
<!-- Title: snakemake_dag Pages: 1 -->
<svg width="248pt" height="260pt"
 viewBox="0.00 0.00 248.00 260.00" xmlns="http://www.w3.org/2000/svg" xmlns:xlink="http://www.w3.org/1999/xlink">
<g id="graph0" class="graph" transform="scale(1 1) rotate(0) translate(4 256)">
<title>snakemake_dag</title>
<polygon fill="white" stroke="transparent" points="-4,4 -4,-256 244,-256 244,4 -4,4"/>
<!-- 0 -->
<g id="node1" class="node">
<title>0</title>
<path fill="none" stroke="#59d856" stroke-width="2" d="M135,-36C135,-36 105,-36 105,-36 99,-36 93,-30 93,-24 93,-24 93,-12 93,-12 93,-6 99,0 105,0 105,0 135,0 135,0 141,0 147,-6 147,-12 147,-12 147,-24 147,-24 147,-30 141,-36 135,-36"/>
<text text-anchor="middle" x="120" y="-15.5" font-family="sans" font-size="10.00">main</text>
</g>
<!-- 1 -->
<g id="node2" class="node">
<title>1</title>
<path fill="none" stroke="#56d8d8" stroke-width="2" d="M212.5,-108C212.5,-108 27.5,-108 27.5,-108 21.5,-108 15.5,-102 15.5,-96 15.5,-96 15.5,-84 15.5,-84 15.5,-78 21.5,-72 27.5,-72 27.5,-72 212.5,-72 212.5,-72 218.5,-72 224.5,-78 224.5,-84 224.5,-84 224.5,-96 224.5,-96 224.5,-102 218.5,-108 212.5,-108"/>
<text text-anchor="middle" x="120" y="-87.5" font-family="sans" font-size="10.00">mobile_element_insertion_link_out_run</text>
</g>
<!-- 1&#45;&gt;0 -->
<g id="edge1" class="edge">
<title>1&#45;&gt;0</title>
<path fill="none" stroke="grey" stroke-width="2" d="M120,-71.7C120,-63.98 120,-54.71 120,-46.11"/>
<polygon fill="grey" stroke="grey" stroke-width="2" points="123.5,-46.1 120,-36.1 116.5,-46.1 123.5,-46.1"/>
</g>
<!-- 2 -->
<g id="node3" class="node">
<title>2</title>
<path fill="none" stroke="#d6d856" stroke-width="2" d="M228,-180C228,-180 12,-180 12,-180 6,-180 0,-174 0,-168 0,-168 0,-156 0,-156 0,-150 6,-144 12,-144 12,-144 228,-144 228,-144 234,-144 240,-150 240,-156 240,-156 240,-168 240,-168 240,-174 234,-180 228,-180"/>
<text text-anchor="middle" x="120" y="-159.5" font-family="sans" font-size="10.00">mobile_element_insertion_scramble_analysis</text>
</g>
<!-- 2&#45;&gt;1 -->
<g id="edge2" class="edge">
<title>2&#45;&gt;1</title>
<path fill="none" stroke="grey" stroke-width="2" d="M120,-143.7C120,-135.98 120,-126.71 120,-118.11"/>
<polygon fill="grey" stroke="grey" stroke-width="2" points="123.5,-118.1 120,-108.1 116.5,-118.1 123.5,-118.1"/>
</g>
<!-- 3 -->
<g id="node4" class="node">
<title>3</title>
<path fill="none" stroke="#d85656" stroke-width="2" d="M224.5,-252C224.5,-252 15.5,-252 15.5,-252 9.5,-252 3.5,-246 3.5,-240 3.5,-240 3.5,-228 3.5,-228 3.5,-222 9.5,-216 15.5,-216 15.5,-216 224.5,-216 224.5,-216 230.5,-216 236.5,-222 236.5,-228 236.5,-228 236.5,-240 236.5,-240 236.5,-246 230.5,-252 224.5,-252"/>
<text text-anchor="middle" x="120" y="-231.5" font-family="sans" font-size="10.00">mobile_element_insertion_scramble_cluster</text>
</g>
<!-- 3&#45;&gt;2 -->
<g id="edge3" class="edge">
<title>3&#45;&gt;2</title>
<path fill="none" stroke="grey" stroke-width="2" d="M120,-215.7C120,-207.98 120,-198.71 120,-190.11"/>
<polygon fill="grey" stroke="grey" stroke-width="2" points="123.5,-190.1 120,-180.1 116.5,-190.1 123.5,-190.1"/>
</g>
</g>
</svg>
