<?xml version="1.0" encoding="UTF-8" standalone="no"?>
<!DOCTYPE svg PUBLIC "-//W3C//DTD SVG 1.1//EN"
 "http://www.w3.org/Graphics/SVG/1.1/DTD/svg11.dtd">
<!-- Generated by graphviz version 2.47.2 (20210527.1257)
 -->
<!-- Title: snakemake_dag Pages: 1 -->
<svg width="251pt" height="332pt"
 viewBox="0.00 0.00 251.00 332.00" xmlns="http://www.w3.org/2000/svg" xmlns:xlink="http://www.w3.org/1999/xlink">
<g id="graph0" class="graph" transform="scale(1 1) rotate(0) translate(4 328)">
<title>snakemake_dag</title>
<polygon fill="white" stroke="transparent" points="-4,4 -4,-328 247,-328 247,4 -4,4"/>
<!-- 0 -->
<g id="node1" class="node">
<title>0</title>
<path fill="none" stroke="#88d856" stroke-width="2" d="M136.5,-36C136.5,-36 106.5,-36 106.5,-36 100.5,-36 94.5,-30 94.5,-24 94.5,-24 94.5,-12 94.5,-12 94.5,-6 100.5,0 106.5,0 106.5,0 136.5,0 136.5,0 142.5,0 148.5,-6 148.5,-12 148.5,-12 148.5,-24 148.5,-24 148.5,-30 142.5,-36 136.5,-36"/>
<text text-anchor="middle" x="121.5" y="-15.5" font-family="sans" font-size="10.00">main</text>
</g>
<!-- 1 -->
<g id="node2" class="node">
<title>1</title>
<path fill="none" stroke="#56c1d8" stroke-width="2" d="M214,-108C214,-108 29,-108 29,-108 23,-108 17,-102 17,-96 17,-96 17,-84 17,-84 17,-78 23,-72 29,-72 29,-72 214,-72 214,-72 220,-72 226,-78 226,-84 226,-84 226,-96 226,-96 226,-102 220,-108 214,-108"/>
<text text-anchor="middle" x="121.5" y="-87.5" font-family="sans" font-size="10.00">mobile_element_insertion_link_out_run</text>
</g>
<!-- 1&#45;&gt;0 -->
<g id="edge1" class="edge">
<title>1&#45;&gt;0</title>
<path fill="none" stroke="grey" stroke-width="2" d="M121.5,-71.7C121.5,-63.98 121.5,-54.71 121.5,-46.11"/>
<polygon fill="grey" stroke="grey" stroke-width="2" points="125,-46.1 121.5,-36.1 118,-46.1 125,-46.1"/>
</g>
<!-- 2 -->
<g id="node3" class="node">
<title>2</title>
<path fill="none" stroke="#56d88a" stroke-width="2" d="M231,-180C231,-180 12,-180 12,-180 6,-180 0,-174 0,-168 0,-168 0,-156 0,-156 0,-150 6,-144 12,-144 12,-144 231,-144 231,-144 237,-144 243,-150 243,-156 243,-156 243,-168 243,-168 243,-174 237,-180 231,-180"/>
<text text-anchor="middle" x="121.5" y="-159.5" font-family="sans" font-size="10.00">mobile_element_insertion_scramble_annotate</text>
</g>
<!-- 2&#45;&gt;1 -->
<g id="edge2" class="edge">
<title>2&#45;&gt;1</title>
<path fill="none" stroke="grey" stroke-width="2" d="M121.5,-143.7C121.5,-135.98 121.5,-126.71 121.5,-118.11"/>
<polygon fill="grey" stroke="grey" stroke-width="2" points="125,-118.1 121.5,-108.1 118,-118.1 125,-118.1"/>
</g>
<!-- 3 -->
<g id="node4" class="node">
<title>3</title>
<path fill="none" stroke="#d8bc56" stroke-width="2" d="M229.5,-252C229.5,-252 13.5,-252 13.5,-252 7.5,-252 1.5,-246 1.5,-240 1.5,-240 1.5,-228 1.5,-228 1.5,-222 7.5,-216 13.5,-216 13.5,-216 229.5,-216 229.5,-216 235.5,-216 241.5,-222 241.5,-228 241.5,-228 241.5,-240 241.5,-240 241.5,-246 235.5,-252 229.5,-252"/>
<text text-anchor="middle" x="121.5" y="-231.5" font-family="sans" font-size="10.00">mobile_element_insertion_scramble_analysis</text>
</g>
<!-- 3&#45;&gt;2 -->
<g id="edge3" class="edge">
<title>3&#45;&gt;2</title>
<path fill="none" stroke="grey" stroke-width="2" d="M121.5,-215.7C121.5,-207.98 121.5,-198.71 121.5,-190.11"/>
<polygon fill="grey" stroke="grey" stroke-width="2" points="125,-190.1 121.5,-180.1 118,-190.1 125,-190.1"/>
</g>
<!-- 4 -->
<g id="node5" class="node">
<title>4</title>
<path fill="none" stroke="#d85656" stroke-width="2" d="M226,-324C226,-324 17,-324 17,-324 11,-324 5,-318 5,-312 5,-312 5,-300 5,-300 5,-294 11,-288 17,-288 17,-288 226,-288 226,-288 232,-288 238,-294 238,-300 238,-300 238,-312 238,-312 238,-318 232,-324 226,-324"/>
<text text-anchor="middle" x="121.5" y="-303.5" font-family="sans" font-size="10.00">mobile_element_insertion_scramble_cluster</text>
</g>
<!-- 4&#45;&gt;3 -->
<g id="edge4" class="edge">
<title>4&#45;&gt;3</title>
<path fill="none" stroke="grey" stroke-width="2" d="M121.5,-287.7C121.5,-279.98 121.5,-270.71 121.5,-262.11"/>
<polygon fill="grey" stroke="grey" stroke-width="2" points="125,-262.1 121.5,-252.1 118,-262.1 125,-262.1"/>
</g>
</g>
</svg>
