<?xml version="1.0" encoding="UTF-8" standalone="no"?>
<!DOCTYPE svg PUBLIC "-//W3C//DTD SVG 1.1//EN"
 "http://www.w3.org/Graphics/SVG/1.1/DTD/svg11.dtd">
<!-- Generated by graphviz version 2.47.2 (20210527.1257)
 -->
<!-- Title: snakemake_dag Pages: 1 -->
<svg width="308pt" height="260pt"
 viewBox="0.00 0.00 307.50 260.00" xmlns="http://www.w3.org/2000/svg" xmlns:xlink="http://www.w3.org/1999/xlink">
<g id="graph0" class="graph" transform="scale(1 1) rotate(0) translate(4 256)">
<title>snakemake_dag</title>
<polygon fill="white" stroke="transparent" points="-4,4 -4,-256 303.5,-256 303.5,4 -4,4"/>
<!-- 0 -->
<g id="node1" class="node">
<title>0</title>
<path fill="none" stroke="#59d856" stroke-width="2" d="M121,-36C121,-36 91,-36 91,-36 85,-36 79,-30 79,-24 79,-24 79,-12 79,-12 79,-6 85,0 91,0 91,0 121,0 121,0 127,0 133,-6 133,-12 133,-12 133,-24 133,-24 133,-30 127,-36 121,-36"/>
<text text-anchor="middle" x="106" y="-15.5" font-family="sans" font-size="10.00">main</text>
</g>
<!-- 1 -->
<g id="node2" class="node">
<title>1</title>
<path fill="none" stroke="#d85656" stroke-width="2" d="M178.5,-108C178.5,-108 33.5,-108 33.5,-108 27.5,-108 21.5,-102 21.5,-96 21.5,-96 21.5,-84 21.5,-84 21.5,-78 27.5,-72 33.5,-72 33.5,-72 178.5,-72 178.5,-72 184.5,-72 190.5,-78 190.5,-84 190.5,-84 190.5,-96 190.5,-96 190.5,-102 184.5,-108 178.5,-108"/>
<text text-anchor="middle" x="106" y="-87.5" font-family="sans" font-size="10.00">repeat_expansion_link_out_run</text>
</g>
<!-- 1&#45;&gt;0 -->
<g id="edge1" class="edge">
<title>1&#45;&gt;0</title>
<path fill="none" stroke="grey" stroke-width="2" d="M106,-71.7C106,-63.98 106,-54.71 106,-46.11"/>
<polygon fill="grey" stroke="grey" stroke-width="2" points="109.5,-46.1 106,-36.1 102.5,-46.1 109.5,-46.1"/>
</g>
<!-- 2 -->
<g id="node3" class="node">
<title>2</title>
<path fill="none" stroke="#56d8d8" stroke-width="2" d="M287.5,-180C287.5,-180 72.5,-180 72.5,-180 66.5,-180 60.5,-174 60.5,-168 60.5,-168 60.5,-156 60.5,-156 60.5,-150 66.5,-144 72.5,-144 72.5,-144 287.5,-144 287.5,-144 293.5,-144 299.5,-150 299.5,-156 299.5,-156 299.5,-168 299.5,-168 299.5,-174 293.5,-180 287.5,-180"/>
<text text-anchor="middle" x="180" y="-159.5" font-family="sans" font-size="10.00">repeat_expansion_annotate_expansionhunter</text>
</g>
<!-- 2&#45;&gt;1 -->
<g id="edge2" class="edge">
<title>2&#45;&gt;1</title>
<path fill="none" stroke="grey" stroke-width="2" d="M161.71,-143.7C152.57,-135.05 141.36,-124.45 131.4,-115.03"/>
<polygon fill="grey" stroke="grey" stroke-width="2" points="133.75,-112.43 124.08,-108.1 128.94,-117.52 133.75,-112.43"/>
</g>
<!-- 3 -->
<g id="node4" class="node">
<title>3</title>
<path fill="none" stroke="#d6d856" stroke-width="2" d="M200,-252C200,-252 12,-252 12,-252 6,-252 0,-246 0,-240 0,-240 0,-228 0,-228 0,-222 6,-216 12,-216 12,-216 200,-216 200,-216 206,-216 212,-222 212,-228 212,-228 212,-240 212,-240 212,-246 206,-252 200,-252"/>
<text text-anchor="middle" x="106" y="-231.5" font-family="sans" font-size="10.00">repeat_expansion_run_expansionhunter</text>
</g>
<!-- 3&#45;&gt;1 -->
<g id="edge3" class="edge">
<title>3&#45;&gt;1</title>
<path fill="none" stroke="grey" stroke-width="2" d="M81.07,-215.86C69.94,-206.67 58,-194.29 52,-180 45.81,-165.25 45.81,-158.75 52,-144 56.64,-132.95 64.83,-123.04 73.46,-114.86"/>
<polygon fill="grey" stroke="grey" stroke-width="2" points="75.89,-117.38 81.07,-108.14 71.26,-112.14 75.89,-117.38"/>
</g>
<!-- 3&#45;&gt;2 -->
<g id="edge4" class="edge">
<title>3&#45;&gt;2</title>
<path fill="none" stroke="grey" stroke-width="2" d="M124.29,-215.7C133.43,-207.05 144.64,-196.45 154.6,-187.03"/>
<polygon fill="grey" stroke="grey" stroke-width="2" points="157.06,-189.52 161.92,-180.1 152.25,-184.43 157.06,-189.52"/>
</g>
</g>
</svg>
<?xml version="1.0" encoding="UTF-8" standalone="no"?>
<!DOCTYPE svg PUBLIC "-//W3C//DTD SVG 1.1//EN"
 "http://www.w3.org/Graphics/SVG/1.1/DTD/svg11.dtd">
<!-- Generated by graphviz version 2.47.2 (20210527.1257)
 -->
<!-- Title: snakemake_dag Pages: 1 -->
<svg width="308pt" height="260pt"
 viewBox="0.00 0.00 307.50 260.00" xmlns="http://www.w3.org/2000/svg" xmlns:xlink="http://www.w3.org/1999/xlink">
<g id="graph0" class="graph" transform="scale(1 1) rotate(0) translate(4 256)">
<title>snakemake_dag</title>
<polygon fill="white" stroke="transparent" points="-4,4 -4,-256 303.5,-256 303.5,4 -4,4"/>
<!-- 0 -->
<g id="node1" class="node">
<title>0</title>
<path fill="none" stroke="#59d856" stroke-width="2" d="M121,-36C121,-36 91,-36 91,-36 85,-36 79,-30 79,-24 79,-24 79,-12 79,-12 79,-6 85,0 91,0 91,0 121,0 121,0 127,0 133,-6 133,-12 133,-12 133,-24 133,-24 133,-30 127,-36 121,-36"/>
<text text-anchor="middle" x="106" y="-15.5" font-family="sans" font-size="10.00">main</text>
</g>
<!-- 1 -->
<g id="node2" class="node">
<title>1</title>
<path fill="none" stroke="#d85656" stroke-width="2" d="M178.5,-108C178.5,-108 33.5,-108 33.5,-108 27.5,-108 21.5,-102 21.5,-96 21.5,-96 21.5,-84 21.5,-84 21.5,-78 27.5,-72 33.5,-72 33.5,-72 178.5,-72 178.5,-72 184.5,-72 190.5,-78 190.5,-84 190.5,-84 190.5,-96 190.5,-96 190.5,-102 184.5,-108 178.5,-108"/>
<text text-anchor="middle" x="106" y="-87.5" font-family="sans" font-size="10.00">repeat_expansion_link_out_run</text>
</g>
<!-- 1&#45;&gt;0 -->
<g id="edge1" class="edge">
<title>1&#45;&gt;0</title>
<path fill="none" stroke="grey" stroke-width="2" d="M106,-71.7C106,-63.98 106,-54.71 106,-46.11"/>
<polygon fill="grey" stroke="grey" stroke-width="2" points="109.5,-46.1 106,-36.1 102.5,-46.1 109.5,-46.1"/>
</g>
<!-- 2 -->
<g id="node3" class="node">
<title>2</title>
<path fill="none" stroke="#d6d856" stroke-width="2" d="M287.5,-180C287.5,-180 72.5,-180 72.5,-180 66.5,-180 60.5,-174 60.5,-168 60.5,-168 60.5,-156 60.5,-156 60.5,-150 66.5,-144 72.5,-144 72.5,-144 287.5,-144 287.5,-144 293.5,-144 299.5,-150 299.5,-156 299.5,-156 299.5,-168 299.5,-168 299.5,-174 293.5,-180 287.5,-180"/>
<text text-anchor="middle" x="180" y="-159.5" font-family="sans" font-size="10.00">repeat_expansion_annotate_expansionhunter</text>
</g>
<!-- 2&#45;&gt;1 -->
<g id="edge2" class="edge">
<title>2&#45;&gt;1</title>
<path fill="none" stroke="grey" stroke-width="2" d="M161.71,-143.7C152.57,-135.05 141.36,-124.45 131.4,-115.03"/>
<polygon fill="grey" stroke="grey" stroke-width="2" points="133.75,-112.43 124.08,-108.1 128.94,-117.52 133.75,-112.43"/>
</g>
<!-- 3 -->
<g id="node4" class="node">
<title>3</title>
<path fill="none" stroke="#56d8d8" stroke-width="2" d="M200,-252C200,-252 12,-252 12,-252 6,-252 0,-246 0,-240 0,-240 0,-228 0,-228 0,-222 6,-216 12,-216 12,-216 200,-216 200,-216 206,-216 212,-222 212,-228 212,-228 212,-240 212,-240 212,-246 206,-252 200,-252"/>
<text text-anchor="middle" x="106" y="-231.5" font-family="sans" font-size="10.00">repeat_expansion_run_expansionhunter</text>
</g>
<!-- 3&#45;&gt;1 -->
<g id="edge3" class="edge">
<title>3&#45;&gt;1</title>
<path fill="none" stroke="grey" stroke-width="2" d="M81.07,-215.86C69.94,-206.67 58,-194.29 52,-180 45.81,-165.25 45.81,-158.75 52,-144 56.64,-132.95 64.83,-123.04 73.46,-114.86"/>
<polygon fill="grey" stroke="grey" stroke-width="2" points="75.89,-117.38 81.07,-108.14 71.26,-112.14 75.89,-117.38"/>
</g>
<!-- 3&#45;&gt;2 -->
<g id="edge4" class="edge">
<title>3&#45;&gt;2</title>
<path fill="none" stroke="grey" stroke-width="2" d="M124.29,-215.7C133.43,-207.05 144.64,-196.45 154.6,-187.03"/>
<polygon fill="grey" stroke="grey" stroke-width="2" points="157.06,-189.52 161.92,-180.1 152.25,-184.43 157.06,-189.52"/>
</g>
</g>
</svg>
