<?xml version="1.0" encoding="UTF-8" standalone="no"?>
<!DOCTYPE svg PUBLIC "-//W3C//DTD SVG 1.1//EN"
 "http://www.w3.org/Graphics/SVG/1.1/DTD/svg11.dtd">
<!-- Generated by graphviz version 2.47.2 (20210527.1257)
 -->
<!-- Title: snakemake_dag Pages: 1 -->
<svg width="577pt" height="836pt"
 viewBox="0.00 0.00 576.50 836.00" xmlns="http://www.w3.org/2000/svg" xmlns:xlink="http://www.w3.org/1999/xlink">
<g id="graph0" class="graph" transform="scale(1 1) rotate(0) translate(4 832)">
<title>snakemake_dag</title>
<polygon fill="white" stroke="transparent" points="-4,4 -4,-832 572.5,-832 572.5,4 -4,4"/>
<!-- 0 -->
<g id="node1" class="node">
<title>0</title>
<path fill="none" stroke="#d85656" stroke-width="2" d="M221.5,-36C221.5,-36 191.5,-36 191.5,-36 185.5,-36 179.5,-30 179.5,-24 179.5,-24 179.5,-12 179.5,-12 179.5,-6 185.5,0 191.5,0 191.5,0 221.5,0 221.5,0 227.5,0 233.5,-6 233.5,-12 233.5,-12 233.5,-24 233.5,-24 233.5,-30 227.5,-36 221.5,-36"/>
<text text-anchor="middle" x="206.5" y="-15.5" font-family="sans" font-size="10.00">main</text>
</g>
<!-- 1 -->
<g id="node2" class="node">
<title>1</title>
<path fill="none" stroke="#56d8a9" stroke-width="2" d="M297.5,-108C297.5,-108 115.5,-108 115.5,-108 109.5,-108 103.5,-102 103.5,-96 103.5,-96 103.5,-84 103.5,-84 103.5,-78 109.5,-72 115.5,-72 115.5,-72 297.5,-72 297.5,-72 303.5,-72 309.5,-78 309.5,-84 309.5,-84 309.5,-96 309.5,-96 309.5,-102 303.5,-108 297.5,-108"/>
<text text-anchor="middle" x="206.5" y="-87.5" font-family="sans" font-size="10.00">targeteq_seq_cnv_calling_link_out_run</text>
</g>
<!-- 1&#45;&gt;0 -->
<g id="edge1" class="edge">
<title>1&#45;&gt;0</title>
<path fill="none" stroke="grey" stroke-width="2" d="M206.5,-71.7C206.5,-63.98 206.5,-54.71 206.5,-46.11"/>
<polygon fill="grey" stroke="grey" stroke-width="2" points="210,-46.1 206.5,-36.1 203,-46.1 210,-46.1"/>
</g>
<!-- 2 -->
<g id="node3" class="node">
<title>2</title>
<path fill="none" stroke="#567bd8" stroke-width="2" d="M338.5,-180C338.5,-180 74.5,-180 74.5,-180 68.5,-180 62.5,-174 62.5,-168 62.5,-168 62.5,-156 62.5,-156 62.5,-150 68.5,-144 74.5,-144 74.5,-144 338.5,-144 338.5,-144 344.5,-144 350.5,-150 350.5,-156 350.5,-156 350.5,-168 350.5,-168 350.5,-174 344.5,-180 338.5,-180"/>
<text text-anchor="middle" x="206.5" y="-159.5" font-family="sans" font-size="10.00">targeted_seq_cnv_calling_gcnv_symlink_extracted_ped</text>
</g>
<!-- 2&#45;&gt;1 -->
<g id="edge2" class="edge">
<title>2&#45;&gt;1</title>
<path fill="none" stroke="grey" stroke-width="2" d="M206.5,-143.7C206.5,-135.98 206.5,-126.71 206.5,-118.11"/>
<polygon fill="grey" stroke="grey" stroke-width="2" points="210,-118.1 206.5,-108.1 203,-118.1 210,-118.1"/>
</g>
<!-- 3 -->
<g id="node4" class="node">
<title>3</title>
<path fill="none" stroke="#56c1d8" stroke-width="2" d="M326.5,-252C326.5,-252 86.5,-252 86.5,-252 80.5,-252 74.5,-246 74.5,-240 74.5,-240 74.5,-228 74.5,-228 74.5,-222 80.5,-216 86.5,-216 86.5,-216 326.5,-216 326.5,-216 332.5,-216 338.5,-222 338.5,-228 338.5,-228 338.5,-240 338.5,-240 338.5,-246 332.5,-252 326.5,-252"/>
<text text-anchor="middle" x="206.5" y="-231.5" font-family="sans" font-size="10.00">targeted_seq_cnv_calling_gcnv_list_extracted_ped</text>
</g>
<!-- 3&#45;&gt;2 -->
<g id="edge3" class="edge">
<title>3&#45;&gt;2</title>
<path fill="none" stroke="grey" stroke-width="2" d="M206.5,-215.7C206.5,-207.98 206.5,-198.71 206.5,-190.11"/>
<polygon fill="grey" stroke="grey" stroke-width="2" points="210,-190.1 206.5,-180.1 203,-190.1 210,-190.1"/>
</g>
<!-- 4 -->
<g id="node5" class="node">
<title>4</title>
<path fill="none" stroke="#d89c56" stroke-width="2" d="M310.5,-324C310.5,-324 102.5,-324 102.5,-324 96.5,-324 90.5,-318 90.5,-312 90.5,-312 90.5,-300 90.5,-300 90.5,-294 96.5,-288 102.5,-288 102.5,-288 310.5,-288 310.5,-288 316.5,-288 322.5,-294 322.5,-300 322.5,-300 322.5,-312 322.5,-312 322.5,-318 316.5,-324 310.5,-324"/>
<text text-anchor="middle" x="206.5" y="-303.5" font-family="sans" font-size="10.00">targeted_seq_cnv_calling_gcnv_extract_ped</text>
</g>
<!-- 4&#45;&gt;3 -->
<g id="edge4" class="edge">
<title>4&#45;&gt;3</title>
<path fill="none" stroke="grey" stroke-width="2" d="M206.5,-287.7C206.5,-279.98 206.5,-270.71 206.5,-262.11"/>
<polygon fill="grey" stroke="grey" stroke-width="2" points="210,-262.1 206.5,-252.1 203,-262.1 210,-262.1"/>
</g>
<!-- 5 -->
<g id="node6" class="node">
<title>5</title>
<path fill="none" stroke="#68d856" stroke-width="2" d="M328,-396C328,-396 85,-396 85,-396 79,-396 73,-390 73,-384 73,-384 73,-372 73,-372 73,-366 79,-360 85,-360 85,-360 328,-360 328,-360 334,-360 340,-366 340,-372 340,-372 340,-384 340,-384 340,-390 334,-396 328,-396"/>
<text text-anchor="middle" x="206.5" y="-375.5" font-family="sans" font-size="10.00">targeted_seq_cnv_calling_gcnv_merge_cohort_vcfs</text>
</g>
<!-- 5&#45;&gt;4 -->
<g id="edge5" class="edge">
<title>5&#45;&gt;4</title>
<path fill="none" stroke="grey" stroke-width="2" d="M206.5,-359.7C206.5,-351.98 206.5,-342.71 206.5,-334.11"/>
<polygon fill="grey" stroke="grey" stroke-width="2" points="210,-334.1 206.5,-324.1 203,-334.1 210,-334.1"/>
</g>
<!-- 6 -->
<g id="node7" class="node">
<title>6</title>
<path fill="none" stroke="#afd856" stroke-width="2" d="M330.5,-468C330.5,-468 82.5,-468 82.5,-468 76.5,-468 70.5,-462 70.5,-456 70.5,-456 70.5,-444 70.5,-444 70.5,-438 76.5,-432 82.5,-432 82.5,-432 330.5,-432 330.5,-432 336.5,-432 342.5,-438 342.5,-444 342.5,-444 342.5,-456 342.5,-456 342.5,-462 336.5,-468 330.5,-468"/>
<text text-anchor="middle" x="206.5" y="-447.5" font-family="sans" font-size="10.00">targeted_seq_cnv_calling_gcnv_post_germline_calls</text>
</g>
<!-- 6&#45;&gt;5 -->
<g id="edge6" class="edge">
<title>6&#45;&gt;5</title>
<path fill="none" stroke="grey" stroke-width="2" d="M206.5,-431.7C206.5,-423.98 206.5,-414.71 206.5,-406.11"/>
<polygon fill="grey" stroke="grey" stroke-width="2" points="210,-406.1 206.5,-396.1 203,-406.1 210,-406.1"/>
</g>
<!-- 7 -->
<g id="node8" class="node">
<title>7</title>
<path fill="none" stroke="#d8bc56" stroke-width="2" d="M322.5,-540C322.5,-540 90.5,-540 90.5,-540 84.5,-540 78.5,-534 78.5,-528 78.5,-528 78.5,-516 78.5,-516 78.5,-510 84.5,-504 90.5,-504 90.5,-504 322.5,-504 322.5,-504 328.5,-504 334.5,-510 334.5,-516 334.5,-516 334.5,-528 334.5,-528 334.5,-534 328.5,-540 322.5,-540"/>
<text text-anchor="middle" x="206.5" y="-519.5" font-family="sans" font-size="10.00">targeted_seq_cnv_calling_gcnv_scatter_intervals</text>
</g>
<!-- 7&#45;&gt;6 -->
<g id="edge7" class="edge">
<title>7&#45;&gt;6</title>
<path fill="none" stroke="grey" stroke-width="2" d="M206.5,-503.7C206.5,-495.98 206.5,-486.71 206.5,-478.11"/>
<polygon fill="grey" stroke="grey" stroke-width="2" points="210,-478.1 206.5,-468.1 203,-478.1 210,-478.1"/>
</g>
<!-- 8 -->
<g id="node9" class="node">
<title>8</title>
<path fill="none" stroke="#56d88a" stroke-width="2" d="M317,-612C317,-612 96,-612 96,-612 90,-612 84,-606 84,-600 84,-600 84,-588 84,-588 84,-582 90,-576 96,-576 96,-576 317,-576 317,-576 323,-576 329,-582 329,-588 329,-588 329,-600 329,-600 329,-606 323,-612 317,-612"/>
<text text-anchor="middle" x="206.5" y="-591.5" font-family="sans" font-size="10.00">targeted_seq_cnv_calling_gcnv_filter_intervals</text>
</g>
<!-- 8&#45;&gt;7 -->
<g id="edge8" class="edge">
<title>8&#45;&gt;7</title>
<path fill="none" stroke="grey" stroke-width="2" d="M206.5,-575.7C206.5,-567.98 206.5,-558.71 206.5,-550.11"/>
<polygon fill="grey" stroke="grey" stroke-width="2" points="210,-550.1 206.5,-540.1 203,-550.1 210,-550.1"/>
</g>
<!-- 9 -->
<g id="node10" class="node">
<title>9</title>
<path fill="none" stroke="#88d856" stroke-width="2" d="M263,-828C263,-828 12,-828 12,-828 6,-828 0,-822 0,-816 0,-816 0,-804 0,-804 0,-798 6,-792 12,-792 12,-792 263,-792 263,-792 269,-792 275,-798 275,-804 275,-804 275,-816 275,-816 275,-822 269,-828 263,-828"/>
<text text-anchor="middle" x="137.5" y="-807.5" font-family="sans" font-size="10.00">targeted_seq_cnv_calling_gcnv_preprocess_intervals</text>
</g>
<!-- 9&#45;&gt;8 -->
<g id="edge9" class="edge">
<title>9&#45;&gt;8</title>
<path fill="none" stroke="grey" stroke-width="2" d="M109.7,-791.87C97.73,-782.84 85,-770.59 78.5,-756 68.66,-733.94 84.17,-653.77 88.5,-648 98.86,-634.18 113.65,-623.88 129.26,-616.23"/>
<polygon fill="grey" stroke="grey" stroke-width="2" points="130.86,-619.35 138.52,-612.03 127.97,-612.98 130.86,-619.35"/>
</g>
<!-- 10 -->
<g id="node11" class="node">
<title>10</title>
<path fill="none" stroke="#d87556" stroke-width="2" d="M303.5,-684C303.5,-684 109.5,-684 109.5,-684 103.5,-684 97.5,-678 97.5,-672 97.5,-672 97.5,-660 97.5,-660 97.5,-654 103.5,-648 109.5,-648 109.5,-648 303.5,-648 303.5,-648 309.5,-648 315.5,-654 315.5,-660 315.5,-660 315.5,-672 315.5,-672 315.5,-678 309.5,-684 303.5,-684"/>
<text text-anchor="middle" x="206.5" y="-663.5" font-family="sans" font-size="10.00">targeted_seq_cnv_calling_gcnv_chunking</text>
</g>
<!-- 9&#45;&gt;10 -->
<g id="edge12" class="edge">
<title>9&#45;&gt;10</title>
<path fill="none" stroke="grey" stroke-width="2" d="M116.61,-791.85C97.02,-773.62 72.88,-744.14 88.5,-720 97.39,-706.26 110.78,-696.05 125.39,-688.47"/>
<polygon fill="grey" stroke="grey" stroke-width="2" points="127.09,-691.54 134.62,-684.08 124.08,-685.22 127.09,-691.54"/>
</g>
<!-- 11 -->
<g id="node12" class="node">
<title>11</title>
<path fill="none" stroke="#56d86b" stroke-width="2" d="M556.5,-756C556.5,-756 346.5,-756 346.5,-756 340.5,-756 334.5,-750 334.5,-744 334.5,-744 334.5,-732 334.5,-732 334.5,-726 340.5,-720 346.5,-720 346.5,-720 556.5,-720 556.5,-720 562.5,-720 568.5,-726 568.5,-732 568.5,-732 568.5,-744 568.5,-744 568.5,-750 562.5,-756 556.5,-756"/>
<text text-anchor="middle" x="451.5" y="-735.5" font-family="sans" font-size="10.00">targeted_seq_cnv_calling_gcnv_annotate_gc</text>
</g>
<!-- 9&#45;&gt;11 -->
<g id="edge15" class="edge">
<title>9&#45;&gt;11</title>
<path fill="none" stroke="grey" stroke-width="2" d="M213.91,-791.97C259.59,-781.78 317.74,-768.82 365.09,-758.26"/>
<polygon fill="grey" stroke="grey" stroke-width="2" points="366.02,-761.64 375.02,-756.05 364.5,-754.81 366.02,-761.64"/>
</g>
<!-- 12 -->
<g id="node13" class="node">
<title>12</title>
<path fill="none" stroke="#ced856" stroke-width="2" d="M304,-756C304,-756 109,-756 109,-756 103,-756 97,-750 97,-744 97,-744 97,-732 97,-732 97,-726 103,-720 109,-720 109,-720 304,-720 304,-720 310,-720 316,-726 316,-732 316,-732 316,-744 316,-744 316,-750 310,-756 304,-756"/>
<text text-anchor="middle" x="206.5" y="-735.5" font-family="sans" font-size="10.00">targeted_seq_cnv_calling_gcnv_coverage</text>
</g>
<!-- 9&#45;&gt;12 -->
<g id="edge16" class="edge">
<title>9&#45;&gt;12</title>
<path fill="none" stroke="grey" stroke-width="2" d="M154.56,-791.7C163,-783.14 173.32,-772.66 182.54,-763.3"/>
<polygon fill="grey" stroke="grey" stroke-width="2" points="185.11,-765.68 189.64,-756.1 180.13,-760.77 185.11,-765.68"/>
</g>
<!-- 10&#45;&gt;8 -->
<g id="edge10" class="edge">
<title>10&#45;&gt;8</title>
<path fill="none" stroke="grey" stroke-width="2" d="M206.5,-647.7C206.5,-639.98 206.5,-630.71 206.5,-622.11"/>
<polygon fill="grey" stroke="grey" stroke-width="2" points="210,-622.1 206.5,-612.1 203,-622.1 210,-622.1"/>
</g>
<!-- 11&#45;&gt;8 -->
<g id="edge11" class="edge">
<title>11&#45;&gt;8</title>
<path fill="none" stroke="grey" stroke-width="2" d="M429.86,-719.92C405.22,-700.95 363.36,-670.08 324.5,-648 303.67,-636.17 279.72,-624.99 258.85,-615.98"/>
<polygon fill="grey" stroke="grey" stroke-width="2" points="260.08,-612.7 249.51,-612 257.34,-619.14 260.08,-612.7"/>
</g>
<!-- 11&#45;&gt;10 -->
<g id="edge13" class="edge">
<title>11&#45;&gt;10</title>
<path fill="none" stroke="grey" stroke-width="2" d="M391.88,-719.97C357.05,-710.01 312.92,-697.41 276.46,-686.99"/>
<polygon fill="grey" stroke="grey" stroke-width="2" points="276.96,-683.49 266.39,-684.11 275.04,-690.22 276.96,-683.49"/>
</g>
<!-- 12&#45;&gt;10 -->
<g id="edge14" class="edge">
<title>12&#45;&gt;10</title>
<path fill="none" stroke="grey" stroke-width="2" d="M206.5,-719.7C206.5,-711.98 206.5,-702.71 206.5,-694.11"/>
<polygon fill="grey" stroke="grey" stroke-width="2" points="210,-694.1 206.5,-684.1 203,-694.1 210,-694.1"/>
</g>
</g>
</svg>
